<?xml version="1.0" encoding="UTF-8" standalone="no"?> <svg width="512" height="512" viewBox="0 0 512 512" fill="none" xmlns="http://www.w3.org/2000/svg">
<path d="M32 128C32 74.9807 74.9807 32 128 32H384C437.019 32 480 74.9807 480 128V384C480 437.019 437.019 480 384 480H128C74.9807 480 32 437.019 32 384V128Z" fill="#597DDC"/>
<path fill-rule="evenodd" clip-rule="evenodd" d="M128 32C74.9807 32 32 74.9807 32 128V368C32 412.183 67.8172 448 112 448H368C412.183 448 448 412.183 448 368V112C448 67.8172 412.183 32 368 32H128Z" fill="#6EBAFF"/>
<path fill-rule="evenodd" clip-rule="evenodd" d="M148.001 112.001C156.838 105.374 169.374 107.165 176.001 116.001L256.001 222.668L336.001 116.001C342.629 107.165 355.165 105.374 364.001 112.001C372.838 118.629 374.629 131.165 368.001 140.001L281.001 256.001L368.001 372.001C374.629 380.838 372.838 393.374 364.001 400.001C355.165 406.629 342.629 404.838 336.001 396.001L256.001 289.335L176.001 396.001C169.374 404.838 156.838 406.629 148.001 400.001C139.165 393.374 137.374 380.838 144.001 372.001L231.001 256.001L144.001 140.001C137.374 131.165 139.165 118.629 148.001 112.001Z" fill="white"/>
</svg>
